<?xml version="1.0" standalone="no"?>
<!DOCTYPE svg PUBLIC "-//W3C//DTD SVG 20010904//EN"
 "http://www.w3.org/TR/2001/REC-SVG-20010904/DTD/svg10.dtd">
<svg version="1.0" xmlns="http://www.w3.org/2000/svg"
 width="500.000000pt" height="500.000000pt" viewBox="0 0 500.000000 500.000000"
 preserveAspectRatio="xMidYMid meet">

<g transform="translate(0.000000,500.000000) scale(0.100000,-0.100000)"
fill="#000000" stroke="none">
<path d="M2396 3703 c7 -56 11 -71 17 -62 7 10 -6 119 -14 119 -5 0 -6 -25 -3
-57z"/>
<path d="M2494 3704 c-14 -31 -23 -59 -20 -62 3 -3 8 3 12 12 4 10 18 16 39
16 21 0 35 -6 39 -16 4 -9 9 -15 11 -12 8 8 -36 118 -47 118 -5 0 -20 -25 -34
-56z m49 6 c6 -23 -4 -33 -27 -24 -12 5 -13 10 -4 30 12 26 23 24 31 -6z"/>
<path d="M2642 3740 c0 -14 2 -19 5 -12 2 6 2 18 0 25 -3 6 -5 1 -5 -13z"/>
<path d="M2307 3720 c5 -26 2 -30 -15 -30 -11 0 -27 -3 -36 -6 -11 -4 -16 0
-16 12 0 11 -5 26 -11 34 -13 19 -1 -88 13 -110 6 -11 8 -6 5 18 -3 27 0 33
20 38 32 8 53 -2 53 -26 0 -11 5 -20 11 -20 6 0 9 6 6 14 -3 7 -9 34 -12 60
-4 25 -11 46 -16 46 -5 0 -6 -13 -2 -30z"/>
<path d="M2722 3728 c-19 -19 -15 -34 15 -56 33 -24 23 -46 -18 -38 -34 7 -38
-1 -6 -13 47 -18 80 35 37 61 -22 14 -27 48 -7 48 7 0 19 -6 26 -12 11 -11 13
-10 9 2 -6 19 -40 24 -56 8z"/>
<path d="M2068 3693 c-22 -5 -22 -4 -1 -70 17 -55 28 -62 66 -42 29 16 37 28
37 60 0 46 -42 68 -102 52z m78 -28 c20 -31 8 -69 -26 -78 -17 -4 -24 1 -36
28 -17 42 -18 62 -1 68 27 12 47 6 63 -18z"/>
<path d="M2914 3633 c-11 -27 -20 -51 -22 -55 -2 -5 1 -8 6 -8 6 0 13 8 16 18
4 12 16 17 43 17 31 0 39 4 41 22 3 21 -29 53 -54 53 -6 0 -20 -21 -30 -47z
m63 15 c18 -14 4 -38 -23 -38 -26 0 -27 3 -18 37 6 22 13 22 41 1z"/>
<path d="M1931 3588 c1 -24 5 -54 9 -68 8 -24 8 -24 9 -2 1 30 44 51 66 32 8
-7 18 -11 20 -8 7 7 -81 88 -95 88 -5 0 -10 -19 -9 -42z m43 3 c17 -19 17 -20
-3 -31 -12 -6 -21 -7 -21 -3 0 4 -3 18 -6 31 -8 27 7 29 30 3z"/>
<path d="M3050 3590 c-40 -40 -13 -110 42 -110 51 0 78 85 36 114 -30 21 -54
20 -78 -4z m68 -6 c24 -17 28 -41 9 -65 -19 -24 -43 -29 -66 -13 -27 19 -27
44 -1 72 25 26 29 27 58 6z"/>
<path d="M1796 3549 c-48 -38 -24 -109 37 -109 15 0 36 9 47 20 17 17 18 23 8
40 -15 23 -17 23 -38 10 -13 -8 -13 -10 2 -10 23 0 32 -18 18 -35 -19 -23 -58
-18 -76 10 -20 31 -10 63 22 71 13 3 24 10 24 15 0 15 -16 10 -44 -12z"/>
<path d="M3196 3481 c-38 -51 -49 -83 -16 -43 25 30 40 21 42 -26 l1 -37 4 33
c3 23 9 32 23 32 10 0 22 5 25 11 11 16 -3 53 -24 66 -18 11 -24 7 -55 -36z
m64 13 c11 -12 10 -18 -3 -31 -13 -13 -19 -14 -31 -4 -12 10 -13 16 -3 32 14
23 21 24 37 3z"/>
<path d="M3340 3433 c0 -7 5 -15 10 -18 7 -4 -4 -23 -25 -47 -47 -51 -36 -63
13 -15 29 29 41 34 50 25 6 -6 14 -9 17 -7 2 3 -11 21 -30 39 -19 19 -35 29
-35 23z"/>
<path d="M1597 3383 c-2 -5 9 -35 24 -68 16 -33 27 -48 24 -34 -6 33 24 64 54
54 42 -13 19 7 -34 31 -62 27 -62 27 -68 17z m48 -23 c23 -9 25 -13 15 -25
-17 -21 -25 -19 -38 10 -13 28 -13 29 23 15z"/>
<path d="M3407 3289 c-26 -23 -46 -44 -43 -47 3 -3 15 3 27 14 20 18 21 18 40
-6 10 -14 19 -20 19 -14 0 6 -7 17 -15 24 -14 11 -14 15 2 32 17 19 18 19 40
-9 13 -15 23 -23 23 -18 0 6 -10 22 -23 38 l-22 27 -48 -41z"/>
<path d="M1528 3267 c21 -22 21 -22 2 -47 -17 -22 -21 -24 -41 -12 -41 26 -30
4 17 -32 26 -20 50 -34 53 -30 3 3 -5 14 -19 24 l-24 18 19 24 c11 13 21 24
22 26 0 2 13 -4 27 -13 44 -29 29 0 -18 33 -52 37 -68 41 -38 9z"/>
<path d="M3482 3183 c-34 -29 -33 -75 3 -99 63 -41 135 57 73 100 -29 21 -51
20 -76 -1z m76 -15 c17 -17 15 -38 -5 -60 -31 -35 -83 -17 -83 29 0 36 61 58
88 31z"/>
<path d="M1407 3132 c-21 -23 -21 -36 -1 -53 13 -10 20 -10 45 5 16 9 34 14
39 11 16 -10 12 -33 -7 -44 -10 -5 -15 -13 -11 -17 12 -11 38 17 38 41 0 37
-23 48 -58 28 -36 -20 -52 -11 -33 18 16 27 9 34 -12 11z"/>
<path d="M3578 3028 c-27 -11 -48 -24 -48 -29 0 -16 21 -62 26 -56 3 3 1 15
-5 26 -10 18 -6 23 39 46 46 23 61 35 43 35 -5 -1 -29 -10 -55 -22z"/>
<path d="M1341 3015 c13 -12 119 -54 119 -46 0 9 -91 51 -111 51 -7 0 -10 -2
-8 -5z"/>
<path d="M2592 2883 c-44 -60 -127 -181 -185 -269 -57 -89 -109 -164 -115
-168 -5 -3 -36 6 -68 22 -73 34 -173 38 -218 9 -37 -25 -28 -31 17 -12 51 21
126 19 191 -6 31 -11 58 -24 60 -28 3 -4 -9 -25 -27 -46 -18 -22 -33 -48 -33
-60 -1 -11 -12 -47 -25 -80 -30 -81 -38 -239 -15 -317 24 -82 72 -147 131
-178 40 -20 64 -25 125 -25 65 0 82 4 129 30 93 51 143 118 249 335 128 263
200 371 276 420 25 16 27 20 12 20 -44 0 -137 -88 -204 -193 l-30 -47 -5 28
c-9 46 -53 82 -99 82 -59 0 -101 -25 -171 -100 -131 -141 -183 -325 -106 -369
46 -25 75 -7 207 127 l124 127 -66 -130 c-112 -223 -208 -315 -328 -315 -76 0
-116 17 -161 70 -101 118 -102 340 -2 527 46 87 41 85 146 58 l67 -17 -20 -70
c-18 -66 -19 -98 -1 -98 5 0 13 26 20 58 18 93 28 112 61 112 29 0 137 29 130
35 -2 2 -33 -4 -70 -13 -37 -8 -71 -13 -74 -9 -10 9 68 219 84 224 25 10 63
-8 73 -34 7 -20 13 -23 21 -15 17 17 -17 50 -58 58 -19 3 -34 10 -34 15 0 5
18 57 40 115 46 120 72 212 64 225 -14 23 -38 1 -112 -98z m94 67 c-12 -62
-120 -322 -135 -327 -47 -14 -101 -42 -139 -71 -24 -18 -45 -32 -47 -30 -8 9
306 458 322 458 3 0 3 -14 -1 -30z m-168 -442 c-22 -57 -42 -106 -46 -109 -9
-9 -133 18 -146 31 -21 21 178 180 225 180 4 0 -11 -46 -33 -102z m302 -160
c40 -65 32 -80 -108 -224 -202 -208 -238 -226 -230 -115 11 147 183 371 285
371 27 0 37 -6 53 -32z"/>
<path d="M1310 2932 c0 -5 14 -21 30 -37 17 -16 30 -32 30 -36 0 -4 -20 -11
-45 -15 -25 -3 -47 -10 -50 -14 -3 -5 22 -17 55 -28 33 -12 60 -17 60 -13 0 4
-19 14 -42 21 -37 11 -40 14 -23 21 11 4 30 8 43 8 29 1 28 22 -3 51 -14 13
-23 25 -22 27 2 2 23 -3 45 -11 23 -9 42 -12 42 -7 0 4 -24 15 -53 24 -61 19
-67 20 -67 9z"/>
<path d="M3645 2920 c-11 -4 -33 -13 -49 -19 -16 -6 -26 -14 -23 -17 6 -7 96
24 112 38 12 10 -13 10 -40 -2z"/>
<path d="M3621 2813 c-34 -42 -10 -93 44 -93 38 0 65 26 65 62 0 57 -73 78
-109 31z m89 -8 c17 -21 8 -47 -22 -65 -21 -11 -32 -12 -45 -4 -22 14 -29 50
-13 70 16 18 64 18 80 -1z"/>
<path d="M1293 2717 c-24 -5 -43 -13 -43 -18 0 -10 97 -69 113 -69 6 0 4 5 -5
11 -27 15 -24 67 5 79 22 9 22 9 -3 8 -14 0 -44 -5 -67 -11z m37 -27 c0 -23
-12 -25 -43 -8 -21 11 -21 11 -2 19 33 13 45 10 45 -11z"/>
<path d="M1305 2408 c12 -127 25 -197 55 -291 151 -472 577 -802 1075 -834
189 -11 447 44 619 135 167 87 349 253 451 411 109 170 173 360 191 574 10
120 -11 93 -24 -30 -60 -569 -488 -999 -1057 -1064 -413 -47 -848 156 -1085
506 -121 179 -187 366 -206 588 -3 42 -11 77 -16 77 -6 0 -8 -27 -3 -72z"/>
<path d="M2020 2350 c0 -17 7 -44 15 -59 26 -51 73 -55 133 -11 23 17 42 35
42 40 0 5 -21 -6 -46 -25 -25 -19 -56 -35 -69 -35 -31 0 -55 35 -55 82 0 21
-4 38 -10 38 -5 0 -10 -14 -10 -30z"/>
</g>
</svg>
